<?xml version="1.0" encoding="UTF-8" standalone="no"?>
<!-- Created with Inkscape (http://www.inkscape.org/) -->

<svg
   version="1.1"
   id="svg1"
   width="144.35805"
   height="99.99897"
   viewBox="0 0 144.35805 99.998971"
   sodipodi:docname="ICON_RESPETO.svg"
   inkscape:version="1.3-dev (c4ce85683, 2023-01-04)"
   xmlns:inkscape="http://www.inkscape.org/namespaces/inkscape"
   xmlns:sodipodi="http://sodipodi.sourceforge.net/DTD/sodipodi-0.dtd"
   xmlns="http://www.w3.org/2000/svg"
   xmlns:svg="http://www.w3.org/2000/svg">
  <defs
     id="defs1" />
  <sodipodi:namedview
     id="namedview1"
     pagecolor="#ffffff"
     bordercolor="#000000"
     borderopacity="0.25"
     inkscape:showpageshadow="2"
     inkscape:pageopacity="0.0"
     inkscape:pagecheckerboard="0"
     inkscape:deskcolor="#d1d1d1"
     inkscape:zoom="2.7027027"
     inkscape:cx="24.79"
     inkscape:cy="-2.775"
     inkscape:window-width="1920"
     inkscape:window-height="1017"
     inkscape:window-x="-8"
     inkscape:window-y="-8"
     inkscape:window-maximized="1"
     inkscape:current-layer="layer2" />
  <g
     inkscape:groupmode="layer"
     id="layer2"
     inkscape:label="ASDASDASDASD"
     transform="translate(-1.2110847,0.3771884)">
    <path
       style="fill:none;stroke:#06294c;stroke-width:2.50001;stroke-linecap:butt;stroke-linejoin:round;stroke-miterlimit:1.7"
       d="M 38.336587,2.4146326 51.502076,14.769681 13.701921,51.868014 2.0930359,40.309811"
       id="path1"
       sodipodi:nodetypes="cccc" />
    <ellipse
       style="fill:#06294c;fill-opacity:1;stroke:#06294c;stroke-width:2.50001;stroke-linecap:butt;stroke-linejoin:bevel;stroke-miterlimit:1.7;stroke-dasharray:none"
       id="path3-4"
       cx="131.86583"
       cy="35.173115"
       rx="1.3680868"
       ry="1.4800645" />
    <path
       style="fill:none;stroke:#06294c;stroke-width:2.50001;stroke-linecap:butt;stroke-linejoin:round;stroke-miterlimit:1.7"
       d="M 108.31956,0.52648177 94.119834,14.097368 131.93534,51.288046 144.68851,38.628653"
       id="path1-4"
       sodipodi:nodetypes="cccc" />
    <ellipse
       style="fill:#06294c;fill-opacity:1;stroke:#06294c;stroke-width:2.50001;stroke-linecap:butt;stroke-linejoin:bevel;stroke-miterlimit:1.7;stroke-dasharray:none"
       id="path3"
       cx="14.145229"
       cy="34.95546"
       rx="1.3680868"
       ry="1.4800645" />
    <path
       style="fill:#06294c;fill-opacity:1;stroke:#06294c;stroke-width:2.50001;stroke-linecap:butt;stroke-linejoin:bevel;stroke-miterlimit:1.7;stroke-dasharray:none"
       d="M 22.89916,45.258868 37.271714,58.802633"
       id="path4" />
    <path
       style="fill:#06294c;fill-opacity:1;stroke:#06294c;stroke-width:2;stroke-linecap:round;stroke-linejoin:bevel;stroke-miterlimit:1.7;stroke-dasharray:none"
       d="m 37.763083,42.67324 c -2.478329,2.737202 -3.621395,6.62155 -3.808112,11.327513"
       id="path5"
       sodipodi:nodetypes="cc" />
    <path
       style="fill:none;fill-opacity:1;stroke:#06294c;stroke-width:2;stroke-linecap:round;stroke-linejoin:round;stroke-miterlimit:1.7;stroke-dasharray:none"
       d="M 32.972233,64.835765 42.92246,54.616378 c 7.933616,-1.036748 8.336669,3.360992 8.230437,8.126259 l -10.687283,9.973137 c -4.502486,0.0106 -8.174418,-1.071521 -7.493381,-7.880009 z"
       id="path6"
       sodipodi:nodetypes="ccccc" />
    <path
       style="fill:none;fill-opacity:1;stroke:#06294c;stroke-width:2;stroke-linecap:round;stroke-linejoin:round;stroke-miterlimit:1.7;stroke-dasharray:none"
       d="m 47.755722,84.130393 9.95023,-10.219386 c 7.933615,-1.036749 8.336669,3.360991 8.230437,8.126259 l -10.687283,9.973135 c -4.502487,0.0106 -8.174418,-1.07152 -7.493384,-7.880008 z"
       id="path6-0"
       sodipodi:nodetypes="ccccc" />
    <path
       style="fill:none;fill-opacity:1;stroke:#06294c;stroke-width:2;stroke-linecap:round;stroke-linejoin:round;stroke-miterlimit:1.7;stroke-dasharray:none"
       d="m 57.484339,90.398904 7.257488,-7.476915 c 7.933614,-1.036749 8.82357,6.835259 7.752691,7.908602 -2.151649,2.156601 -7.516797,7.448321 -7.516797,7.448321 -4.502486,0.0106 -8.174418,-1.071521 -7.493382,-7.880008 z"
       id="path6-0-1"
       sodipodi:nodetypes="ccscc" />
    <path
       style="fill:none;fill-opacity:1;stroke:#06294c;stroke-width:2;stroke-linecap:round;stroke-linejoin:round;stroke-miterlimit:1.7;stroke-dasharray:none"
       d="M 37.630797,76.868982 51.32812,63.509903 c 7.933937,-1.036748 8.337005,3.360993 8.23077,8.126261 L 45.124485,84.748991 c -4.502671,0.0106 -8.174749,-1.071521 -7.493688,-7.880009 z"
       id="path6-0-2"
       sodipodi:nodetypes="ccccc" />
    <path
       style="fill:none;fill-opacity:1;stroke:#06294c;stroke-width:2;stroke-linecap:round;stroke-linejoin:round;stroke-miterlimit:1.7;stroke-dasharray:none"
       d="m 50.041218,18.631217 c 0,0 3.632592,5.397883 6.427837,5.397883 3.691115,0 7.201317,0.174126 10.597242,0.174126 6.660478,0 13.192724,-0.348252 19.978411,-0.348252 3.567837,0 8.686266,-6.268507 8.686266,-6.268507"
       id="path7"
       sodipodi:nodetypes="csssc" />
    <path
       style="fill:none;fill-opacity:1;stroke:#06294c;stroke-width:2;stroke-linecap:round;stroke-linejoin:round;stroke-miterlimit:1.7;stroke-dasharray:none"
       d="m 67.245244,24.573843 c 0,0 -11.151337,10.684509 -15.23245,14.775018 -1.389802,1.393002 -1.365362,4.492931 0,5.910007 2.44776,2.54047 7.603005,2.283169 10.564441,0.369375 3.042481,-1.966169 5.216767,-6.177368 8.844649,-7.510633 4.152023,-1.52589 8.937303,-0.902589 13.266972,0 1.00544,0.2096 2.099205,0.503411 2.825374,1.231251 l 24.3842,24.440341 c 0,0 3.02235,4.173019 -0.0887,8.145572 -1.16903,1.49277 -4.89891,2.73851 -6.23771,1.396625 -3.529,-3.537158 -12.284202,-11.450638 -12.284202,-11.450638"
       id="path8"
       sodipodi:nodetypes="csasaascssc" />
    <path
       style="fill:none;fill-opacity:1;stroke:#06294c;stroke-width:2;stroke-linecap:round;stroke-linejoin:round;stroke-miterlimit:1.7;stroke-dasharray:none"
       d="m 97.815676,33.257737 c 5.394044,4.886257 4.718704,10.38085 0.868627,16.193648"
       id="path9"
       sodipodi:nodetypes="cc" />
    <path
       style="fill:none;fill-opacity:1;stroke:#06294c;stroke-width:2;stroke-linecap:butt;stroke-linejoin:round;stroke-miterlimit:1.7;stroke-dasharray:none"
       d="M 108.58664,60.073025 123.70075,44.227627"
       id="path10" />
    <path
       style="fill:none;fill-opacity:1;stroke:#06294c;stroke-width:2;stroke-linecap:round;stroke-linejoin:round;stroke-miterlimit:1.7;stroke-dasharray:none"
       d="m 105.9871,73.724994 c 0,0 3.26549,5.484866 0.41196,8.995604 -2.29103,2.818674 -6.997918,2.77133 -7.706178,2.06144 C 96.031255,82.114283 84.934541,70.499521 84.934541,70.499521"
       id="path11"
       sodipodi:nodetypes="cssc" />
    <path
       style="fill:none;fill-opacity:1;stroke:#06294c;stroke-width:2;stroke-linecap:round;stroke-linejoin:round;stroke-miterlimit:1.7;stroke-dasharray:none"
       d="m 72.451783,92.286195 c 0,0 5.161301,4.476439 8.338814,6.181446 0.745556,0.400054 4.691558,0.06938 6.080386,-1.654191 1.28446,-1.594045 2.140438,-5.342018 1.302939,-6.181445 C 83.734667,86.182529 76.100015,78.443239 76.100015,78.443239"
       id="path12"
       sodipodi:nodetypes="csssc" />
    <path
       style="fill:none;fill-opacity:1;stroke:#06294c;stroke-width:2;stroke-linecap:round;stroke-linejoin:round;stroke-miterlimit:1.7;stroke-dasharray:none"
       d="m 89.154612,91.241733 c 0,0 4.386707,1.134601 6.582602,-0.44897 2.588342,-1.866582 2.384889,-6.199788 2.384889,-6.199788"
       id="path13"
       sodipodi:nodetypes="csc" />
  </g>
  <path
     style="fill:#fcd900;fill-opacity:1;stroke:#06294c;stroke-width:0.999999;stroke-linecap:butt;stroke-linejoin:round;stroke-miterlimit:1.7;stroke-dasharray:none;stroke-opacity:0"
     d="M 7.2142252,44.822152 C 4.4958659,42.05713 2.2717536,39.691105 2.2717536,39.564326 c 0,-0.251929 33.3471734,-35.4631173 33.7518634,-35.6385009 0.136823,-0.059296 2.85925,2.4516237 6.049844,5.5798199 l 5.801073,5.68763 -17.446391,17.230586 C 20.832625,41.900686 12.796112,49.698328 12.569222,49.751958 12.342335,49.805592 9.9325846,47.587178 7.2142252,44.822152 Z M 14.40084,38.178603 c 1.975986,-1.024172 2.241481,-4.020759 0.479329,-5.41006 -1.052178,-0.829547 -2.19913,-0.891341 -3.549849,-0.19125 -1.149734,0.595921 -1.414653,1.152207 -1.414653,2.970536 0,1.061604 0.218008,1.517426 1.06901,2.235145 1.216697,1.026143 2.020164,1.119193 3.416163,0.395629 z"
     id="path16" />
  <path
     style="fill:#fcd900;fill-opacity:1;stroke:#06294c;stroke-width:0.999999;stroke-linecap:butt;stroke-linejoin:round;stroke-miterlimit:1.7;stroke-dasharray:none;stroke-opacity:0"
     d="M 112.90499,31.80661 95.296971,14.481149 101.68371,8.3018589 c 3.51271,-3.3986099 6.48309,-6.1802606 6.60083,-6.1814462 0.11774,-0.00119 7.8189,8.0268503 17.11369,17.8400793 l 16.89961,17.842236 -5.64386,5.664673 c -3.10414,3.115568 -5.75573,5.664672 -5.89243,5.664672 -0.13669,0 -8.17215,-7.796459 -17.85656,-17.325463 z m 20.28241,5.484947 c 0.95568,-1.423256 0.83937,-2.816774 -0.34013,-4.075202 -1.03662,-1.105968 -3.34203,-1.114811 -4.36463,-0.01675 -1.40161,1.505057 -1.33503,3.128978 0.2006,4.891779 0.40561,0.465612 0.94688,0.599273 2.11539,0.522378 1.35482,-0.08916 1.68263,-0.270599 2.38877,-1.322214 z"
     id="path17" />
</svg>
