<?xml version="1.0" encoding="UTF-8" standalone="no"?>
<!-- Created with Inkscape (http://www.inkscape.org/) -->

<svg
   version="1.1"
   id="svg1"
   width="104.67557"
   height="99.999992"
   viewBox="0 0 104.67557 99.999992"
   sodipodi:docname="ICON_DISCIPLINA.svg"
   inkscape:export-filename="..\Beherit\ProyectosDev\EPTEN Instituto-Capacitaciones\EPTEN_Empresa_de_capacitaciones\public\img\icon_disciplina.png"
   inkscape:export-xdpi="96"
   inkscape:export-ydpi="96"
   inkscape:version="1.3-dev (c4ce85683, 2023-01-04)"
   xmlns:inkscape="http://www.inkscape.org/namespaces/inkscape"
   xmlns:sodipodi="http://sodipodi.sourceforge.net/DTD/sodipodi-0.dtd"
   xmlns="http://www.w3.org/2000/svg"
   xmlns:svg="http://www.w3.org/2000/svg">
  <defs
     id="defs1">
    <inkscape:path-effect
       effect="bspline"
       id="path-effect26"
       is_visible="true"
       lpeversion="1"
       weight="33.333333"
       steps="2"
       helper_size="0"
       apply_no_weight="true"
       apply_with_weight="true"
       only_selected="false" />
    <inkscape:path-effect
       effect="bspline"
       id="path-effect25"
       is_visible="true"
       lpeversion="1"
       weight="33.333333"
       steps="2"
       helper_size="0"
       apply_no_weight="true"
       apply_with_weight="true"
       only_selected="false" />
    <inkscape:path-effect
       effect="bspline"
       id="path-effect24"
       is_visible="true"
       lpeversion="1"
       weight="33.333333"
       steps="2"
       helper_size="0"
       apply_no_weight="true"
       apply_with_weight="true"
       only_selected="false" />
  </defs>
  <sodipodi:namedview
     id="namedview1"
     pagecolor="#ffffff"
     bordercolor="#000000"
     borderopacity="0.25"
     inkscape:showpageshadow="2"
     inkscape:pageopacity="0.0"
     inkscape:pagecheckerboard="0"
     inkscape:deskcolor="#d1d1d1"
     showgrid="true"
     inkscape:zoom="5.6568543"
     inkscape:cx="34.471456"
     inkscape:cy="43.398679"
     inkscape:window-width="1920"
     inkscape:window-height="1017"
     inkscape:window-x="-8"
     inkscape:window-y="-8"
     inkscape:window-maximized="1"
     inkscape:current-layer="layer1">
    <inkscape:grid
       id="grid26"
       visible="true"
       spacingx="1"
       spacingy="1"
       originx="-3.42772"
       originy="-4.3640129" />
  </sodipodi:namedview>
  <g
     inkscape:groupmode="layer"
     id="layer1"
     inkscape:label="23123123"
     transform="translate(-3.42772,-4.3640129)">
    <path
       style="fill:none;stroke:none;stroke-width:1"
       d="m 103.47175,46.248925 c 0.34232,3.070481 0.17003,6.163063 0.26068,9.240752 0.0761,2.583144 0.38662,6.594985 0.52134,9.240753 0.25945,5.095502 -0.0679,1.62505 0.391,5.596512 0.15407,1.333357 0.003,0.789712 0.26067,1.561817"
       id="path1" />
    <path
       style="fill:none;fill-opacity:1;stroke:#06294c;stroke-width:2.50001;stroke-dasharray:none;stroke-opacity:1"
       d="M 24.488665,11.628642 H 9.63046 c -3.5693647,1.043212 -4.8357078,3.353174 -4.952735,6.117117 v 68.850113 c 0.4202185,3.636261 2.5126281,5.491367 6.125751,5.726663 h 49.52735"
       id="path3"
       sodipodi:nodetypes="cccccc" />
    <path
       style="fill:none;fill-opacity:1;stroke:#06294c;stroke-width:2.50001;stroke-dasharray:none;stroke-opacity:1"
       d="M 35.436816,11.758793 H 67.499259"
       id="path4" />
    <path
       style="fill:none;fill-opacity:1;stroke:#06294c;stroke-width:2.50001;stroke-dasharray:none;stroke-opacity:1"
       d="m 77.730567,11.628642 h 14.72787 c 3.454914,0.490241 4.960093,2.670321 5.60441,5.596511 v 41.583386"
       id="path5"
       sodipodi:nodetypes="cccc" />
    <path
       style="fill:none;stroke:#05294d;stroke-width:1.8;stroke-linecap:butt;stroke-linejoin:miter;stroke-dasharray:none;stroke-opacity:1"
       d="m 84.193893,44.635021 h -9.659032 c -1.409274,-0.02209 -2.050729,0.700887 -1.995668,1.952998 v 9.76499"
       id="path15-9"
       sodipodi:nodetypes="cccc" />
    <path
       style="fill:none;stroke:#05294d;stroke-width:1.8;stroke-linecap:butt;stroke-linejoin:miter;stroke-dasharray:none;stroke-opacity:1"
       d="m 56.893159,44.714734 h -9.659032 c -1.409275,-0.02209 -2.05073,0.700888 -1.995669,1.952999 v 9.764989"
       id="path15-06"
       sodipodi:nodetypes="cccc" />
    <path
       style="fill:none;stroke:#05294d;stroke-width:1.8;stroke-linecap:butt;stroke-linejoin:miter;stroke-dasharray:none;stroke-opacity:1"
       d="m 29.831905,44.953878 h -9.659032 c -1.409275,-0.02209 -2.05073,0.700886 -1.995668,1.952998 v 9.764989"
       id="path15-0"
       sodipodi:nodetypes="cccc" />
    <path
       style="fill:none;stroke:#05294d;stroke-width:3.2;stroke-linecap:butt;stroke-linejoin:miter;stroke-dasharray:none;stroke-opacity:1"
       d="M 5.2704794,32.584792 H 97.550155"
       id="path16" />
    <path
       style="font-variation-settings:normal;opacity:1;fill:none;fill-opacity:1;stroke:#05294d;stroke-width:1.69999;stroke-linecap:butt;stroke-linejoin:miter;stroke-miterlimit:4;stroke-dasharray:none;stroke-dashoffset:0;stroke-opacity:1;stop-color:#000000;stop-opacity:1"
       d="m 81.360813,97.398251 c -0.384308,3.748509 2.096913,6.115759 5.9057,6.115759"
       id="path22"
       sodipodi:nodetypes="cc" />
    <path
       style="font-variation-settings:normal;opacity:1;fill:none;fill-opacity:1;stroke:#05294d;stroke-width:1.69999;stroke-linecap:butt;stroke-linejoin:miter;stroke-miterlimit:4;stroke-dasharray:none;stroke-dashoffset:0;stroke-opacity:1;stop-color:#000000;stop-opacity:1"
       d="m 93.266166,97.398251 c 0.384307,3.748509 -2.862125,6.115759 -6.006133,6.115759"
       id="path23"
       sodipodi:nodetypes="cc" />
    <rect
       style="fill:#ffffff;fill-opacity:1;stroke:#05294d;stroke-width:0.933182;stroke-dasharray:none;stroke-opacity:1"
       id="rect26"
       width="0.078193672"
       height="0.07808347"
       x="87.033058"
       y="91.992851" />
    <path
       style="fill:none;fill-opacity:1;stroke:#06294c;stroke-width:2.50001;stroke-dasharray:none;stroke-opacity:1"
       d="M 72.345015,4.4703398 V 18.982226"
       id="path6" />
    <path
       style="font-variation-settings:normal;opacity:1;vector-effect:none;fill:none;fill-opacity:1;stroke:#05294d;stroke-width:1px;stroke-linecap:butt;stroke-linejoin:miter;stroke-miterlimit:4;stroke-dasharray:none;stroke-dashoffset:0;stroke-opacity:1;-inkscape-stroke:none;stop-color:#000000;stop-opacity:1"
       d="m 87.469702,92.033514 h 19.191638 c 1.30879,-0.807153 1.02625,-2.120005 0.50802,-2.987423 -2.10613,-3.525219 -6.62164,-5.143184 -8.241118,-9.074999 -1.375193,-3.338719 -0.291129,-8.093226 -1.016029,-11.667856 -0.708392,-3.49323 -3.470379,-6.051722 -7.225089,-7.891304 -1.962372,-0.665446 -4.097576,-0.940302 -6.770466,0 -3.75471,1.839582 -6.516696,4.398074 -7.225089,7.891304 -0.7249,3.57463 0.359164,8.329137 -1.016028,11.667856 -1.619484,3.931815 -6.134985,5.54978 -8.241117,9.074999 -0.518236,0.867418 -0.800773,2.18027 0.508014,2.987423 H 87.13408"
       id="path20"
       sodipodi:nodetypes="ccsssccssscc" />
    <path
       style="fill:none;fill-opacity:1;stroke:#06294c;stroke-width:2.50001;stroke-dasharray:none;stroke-opacity:1"
       d="M 29.537799,4.3640129 V 18.875899"
       id="path6-2" />
    <path
       style="fill:none;fill-opacity:1;stroke:none;stroke-width:1.6;stroke-dasharray:none;stroke-opacity:1"
       d="m 104.73456,55.383054 -1.59653,15.145699"
       id="path7" />
    <path
       style="fill:none;stroke:#05294d;stroke-width:1.8;stroke-linecap:butt;stroke-linejoin:miter;stroke-dasharray:none;stroke-opacity:1"
       d="m 29.857106,68.814898 h -9.659032 c -1.409275,-0.02209 -2.050729,0.700887 -1.995668,1.952998 v 9.76499"
       id="path15"
       sodipodi:nodetypes="cccc" />
    <path
       style="fill:none;stroke:#05294d;stroke-width:1.8;stroke-linecap:butt;stroke-linejoin:miter;stroke-dasharray:none;stroke-opacity:1"
       d="m 56.89316,68.868139 h -9.659032 c -1.409275,-0.02209 -2.05073,0.700887 -1.995668,1.952998 v 9.76499"
       id="path15-3"
       sodipodi:nodetypes="cccc" />
  </g>
  <path
     style="fill:#fcd900;fill-opacity:1;stroke:#05294d;stroke-width:1.725;stroke-dasharray:none;stroke-opacity:1"
     d="m 64.459718,86.717494 c -0.226794,-0.423171 -0.182675,-1.212627 0.09055,-1.620434 0.860511,-1.284335 1.691304,-2.151776 3.733267,-3.897953 2.581756,-2.207778 3.552577,-3.289737 4.29748,-4.789448 0.820548,-1.652005 0.950715,-2.553785 1.085876,-7.522823 0.122469,-4.502478 0.192163,-5.075897 0.787811,-6.481936 0.350035,-0.826261 1.409133,-2.252607 2.267445,-3.053692 0.949989,-0.886647 3.227911,-2.362543 4.217348,-2.732472 1.548361,-0.578899 3.837093,-0.633279 5.457126,-0.129662 2.156616,0.670423 5.203294,3.040069 6.361665,4.947977 1.097085,1.806965 1.384608,3.53292 1.388661,8.335921 0.0014,1.652318 0.07171,3.394253 0.156272,3.870967 0.505471,2.849782 1.602103,4.520147 4.673521,7.118596 1.99735,1.689783 3.01826,2.686534 3.74275,3.654187 0.75136,1.003543 0.93252,1.689982 0.58555,2.218777 l -0.23919,0.364541 H 83.838497 c -18.859808,0 -19.230247,-0.0054 -19.378779,-0.282546 z"
     id="path26" />
</svg>
