<?xml version="1.0" encoding="UTF-8" standalone="no"?>
<!-- Created with Inkscape (http://www.inkscape.org/) -->

<svg
   version="1.1"
   id="svg1"
   width="94.318481"
   height="100"
   viewBox="0 0 94.31848 100"
   sodipodi:docname="ICON_LIDERAZGO.svg"
   inkscape:version="1.3-dev (c4ce85683, 2023-01-04)"
   xmlns:inkscape="http://www.inkscape.org/namespaces/inkscape"
   xmlns:sodipodi="http://sodipodi.sourceforge.net/DTD/sodipodi-0.dtd"
   xmlns="http://www.w3.org/2000/svg"
   xmlns:svg="http://www.w3.org/2000/svg">
  <defs
     id="defs1" />
  <sodipodi:namedview
     id="namedview1"
     pagecolor="#ffffff"
     bordercolor="#000000"
     borderopacity="0.25"
     inkscape:showpageshadow="2"
     inkscape:pageopacity="0.0"
     inkscape:pagecheckerboard="0"
     inkscape:deskcolor="#d1d1d1"
     inkscape:zoom="5.1448115"
     inkscape:cx="29.349958"
     inkscape:cy="55.492801"
     inkscape:window-width="1920"
     inkscape:window-height="1017"
     inkscape:window-x="-8"
     inkscape:window-y="-8"
     inkscape:window-maximized="1"
     inkscape:current-layer="layer2" />
  <g
     inkscape:groupmode="layer"
     id="layer2"
     inkscape:label="ASDASDASD"
     transform="translate(-3.9036352,-4.5282094)">
    <path
       style="fill:none;stroke:#06294c;stroke-width:2.7;stroke-linecap:round;stroke-linejoin:bevel;stroke-miterlimit:1.7;stroke-dasharray:none;stroke-opacity:1"
       d="M 12.343573,74.452789 V 103.16019"
       id="path1" />
    <path
       style="fill:none;stroke:#06294c;stroke-width:2.3;stroke-linecap:round;stroke-linejoin:round;stroke-miterlimit:1.7;stroke-dasharray:none;stroke-opacity:1"
       d="m 11.09895,98.449691 c -0.445045,0 -6.0453148,-0.817367 -6.0453148,-4.354995 V 67.964737 c 0,-0.541525 1.8829583,-3.199587 3.7338708,-3.199587 h 9.33021 c 0.431626,0 2.886831,8.035097 4.031082,6.891158 3.829665,-3.828619 14.348905,-17.962792 20.865856,-24.755519 0.625549,-0.65202 3.908933,-1.45539 5.914196,0.08125 2.475047,1.896639 1.133839,6.055973 0.931235,6.406798 -3.240136,5.610547 -17.958142,21.746281 -17.958142,22.752621 v 26.663222"
       id="path3"
       sodipodi:nodetypes="csssssssssc" />
    <ellipse
       style="fill:none;stroke:#06294c;stroke-width:2.8;stroke-linejoin:bevel;stroke-miterlimit:1.7;stroke-dasharray:none;stroke-opacity:1"
       id="path4"
       ry="7.1101937"
       rx="7.6010938"
       cy="50.900272"
       cx="22.78952" />
    <path
       style="fill:none;stroke:#06294c;stroke-width:2.7;stroke-linecap:round;stroke-linejoin:bevel;stroke-miterlimit:1.7;stroke-dasharray:none;stroke-opacity:1"
       d="M 89.782176,74.470808 V 103.17821"
       id="path1-8" />
    <path
       style="fill:none;stroke:#06294c;stroke-width:2.3;stroke-linecap:round;stroke-linejoin:round;stroke-miterlimit:1.7;stroke-dasharray:none;stroke-opacity:1"
       d="m 91.026799,98.467706 c 0.298795,0 6.045319,-0.817366 6.045319,-4.354994 V 67.982757 c 0,-0.541526 -1.882961,-3.199588 -3.733878,-3.199588 h -9.330207 c -0.431626,0 -2.886831,8.035098 -4.031082,6.891159 -3.829665,-3.82862 -14.348905,-17.962792 -20.865856,-24.75552 -0.625549,-0.652019 -3.908933,-1.455389 -5.914196,0.08125 -2.475047,1.896638 -1.133838,6.055973 -0.931235,6.406798 3.240136,5.610546 17.958142,21.746281 17.958142,22.75262 V 102.8227"
       id="path3-3"
       sodipodi:nodetypes="csssssssssc" />
    <ellipse
       style="fill:none;stroke:#06294c;stroke-width:2.8;stroke-linejoin:bevel;stroke-miterlimit:1.7;stroke-dasharray:none;stroke-opacity:1"
       id="path4-9"
       ry="7.1101937"
       rx="7.6010938"
       cy="50.918289"
       cx="-79.336227"
       transform="scale(-1,1)" />
    <path
       style="fill:none;stroke:#06294c;stroke-width:2.8;stroke-linecap:round;stroke-linejoin:round;stroke-miterlimit:1.7;stroke-dasharray:none;stroke-opacity:1"
       d="M 51.19361,48.145072 V 6.1060518 L 79.997756,5.928297 c 4.693118,-0.028962 -7.909277,10.066083 -7.201037,11.820697 1.886785,4.674376 12.024655,11.820697 7.378839,11.820697 H 51.371412"
       id="path5"
       sodipodi:nodetypes="ccsssc" />
  </g>
  <path
     style="fill:#fcd900;fill-opacity:1;stroke:#06294c;stroke-width:0.0689943;stroke-opacity:1"
     d="M 48.577783,13.257433 V 2.7899997 l 1.468307,0.00115 c 0.807569,6.353e-4 6.861221,-0.032033 13.452561,-0.072596 6.591339,-0.040562 12.001649,-0.056382 12.02291,-0.035153 0.117947,0.117767 -1.291244,1.8070409 -3.665588,4.3941439 -2.46183,2.6824273 -3.197405,3.5670914 -3.749004,4.5088774 -0.57391,0.979876 -0.595497,1.603722 -0.09107,2.631946 0.7369,1.502103 1.96402,3.06385 4.723828,6.011972 1.562352,1.66896 2.295119,2.476471 2.735028,3.014011 l 0.393239,0.480511 H 62.222888 48.577783 Z"
     id="path6" />
</svg>
