<?xml version="1.0" encoding="UTF-8" standalone="no"?>
<!-- Created with Inkscape (http://www.inkscape.org/) -->

<svg
   version="1.1"
   id="svg1"
   width="98.398872"
   height="99.501366"
   viewBox="0 0 98.398872 99.501366"
   sodipodi:docname="ICON_NIGHT.svg"
   inkscape:version="1.3-dev (c4ce85683, 2023-01-04)"
   xmlns:inkscape="http://www.inkscape.org/namespaces/inkscape"
   xmlns:sodipodi="http://sodipodi.sourceforge.net/DTD/sodipodi-0.dtd"
   xmlns="http://www.w3.org/2000/svg"
   xmlns:svg="http://www.w3.org/2000/svg">
  <defs
     id="defs1" />
  <sodipodi:namedview
     id="namedview1"
     pagecolor="#ffffff"
     bordercolor="#000000"
     borderopacity="0.25"
     inkscape:showpageshadow="2"
     inkscape:pageopacity="0.0"
     inkscape:pagecheckerboard="0"
     inkscape:deskcolor="#d1d1d1"
     inkscape:zoom="8.649248"
     inkscape:cx="18.729952"
     inkscape:cy="35.899075"
     inkscape:window-width="1920"
     inkscape:window-height="1017"
     inkscape:window-x="-8"
     inkscape:window-y="-8"
     inkscape:window-maximized="1"
     inkscape:current-layer="g1" />
  <g
     inkscape:groupmode="layer"
     inkscape:label="Image"
     id="g1"
     transform="translate(-17.726736,-29.347916)">
    <path
       style="fill:#fcd900;fill-opacity:0;stroke:#06294c;stroke-width:4.5;stroke-linecap:round;stroke-linejoin:round;stroke-miterlimit:1.7;stroke-dasharray:none"
       d="M 56.131649,31.792192 C 54.625752,31.886642 89.833341,44.421487 89.251075,78.661837 88.64533,114.28287 53.316374,125.36069 55.987654,125.81554 90.953377,131.7693 114.04573,102.89748 113.87465,78.093719 113.70589,53.627625 98.213689,29.152826 56.131649,31.792192 Z"
       id="path1"
       sodipodi:nodetypes="sssas" />
    <path
       style="fill:#fcd900;fill-opacity:0;stroke:#06294c;stroke-width:1.5;stroke-linecap:round;stroke-linejoin:round;stroke-miterlimit:1.7;stroke-dasharray:none"
       d="m 38.851949,85.479239 2.735953,19.884091 2.591955,-19.884091 7.487871,3.550728 -3.311943,-6.959429 17.711692,-3.124646 -17.567695,-1.988409 3.023948,-6.817402 -6.767883,2.609789 -2.87995,-20.079382 -2.735952,19.884089 -6.839882,-3.195657 2.951949,7.243492 -16.775709,2.130437 16.631712,2.840587 -3.383942,7.172472 z"
       id="path2"
       sodipodi:nodetypes="ccccccccccccccccc" />
    <path
       style="fill:#fcd900;fill-opacity:1;stroke:#06294c;stroke-width:0;stroke-linecap:round;stroke-linejoin:miter;stroke-miterlimit:1.7;stroke-dasharray:none"
       d="m 40.343187,94.29229 c -0.661479,-4.856328 -1.233576,-8.907338 -1.271325,-9.002241 -0.05925,-0.148964 -0.519074,0.03379 -3.36324,1.336723 -1.812032,0.830101 -3.311002,1.493101 -3.331046,1.473335 -0.02004,-0.01976 0.667452,-1.525162 1.527764,-3.34532 1.033688,-2.186968 1.524571,-3.330567 1.447347,-3.371853 -0.06427,-0.03436 -3.392969,-0.617718 -7.397104,-1.296353 -4.004135,-0.678636 -7.312209,-1.260635 -7.351276,-1.293331 -0.03907,-0.0327 3.317228,-0.488299 7.458433,-1.012446 4.141205,-0.524152 7.529464,-0.980863 7.529464,-1.014918 0,-0.03405 -0.6174,-1.568503 -1.371999,-3.409886 -0.7546,-1.841383 -1.356968,-3.362793 -1.338598,-3.380913 0.01837,-0.01811 1.440022,0.623273 3.159224,1.425312 1.719203,0.802044 3.16427,1.45826 3.21126,1.45826 0.04699,0 0.108689,-0.101688 0.13711,-0.225969 0.02842,-0.124281 0.593772,-4.188816 1.256338,-9.032301 0.662564,-4.843485 1.220797,-8.790423 1.240516,-8.770973 0.01972,0.01945 0.619257,4.105751 1.332307,9.08067 0.71305,4.974915 1.325165,9.073622 1.360257,9.108233 0.03509,0.03462 1.473588,-0.482335 3.196658,-1.148779 1.723071,-0.66644 3.1476,-1.197168 3.165619,-1.179395 0.01802,0.01776 -0.606609,1.473048 -1.388064,3.233943 -0.781455,1.760894 -1.408206,3.214077 -1.39278,3.229291 0.01543,0.0152 3.413998,0.409309 7.552385,0.875765 4.138383,0.466457 7.707613,0.883883 7.931619,0.927619 0.337793,0.06594 -0.947815,0.317515 -7.534798,1.474421 -4.368147,0.767198 -7.977702,1.425729 -8.021232,1.463402 -0.04353,0.0377 0.607238,1.509562 1.446155,3.27086 0.838915,1.761294 1.512385,3.215098 1.496598,3.230668 -0.01579,0.01559 -1.537132,-0.689354 -3.380766,-1.566496 -3.494567,-1.662608 -3.64097,-1.708942 -3.754816,-1.188364 -0.02683,0.122687 -0.531386,3.974122 -1.121234,8.558743 -0.589848,4.584621 -1.107468,8.467593 -1.150269,8.628833 -0.05397,0.20331 -0.446419,-2.41298 -1.280507,-8.53654 z"
       id="path3" />
    <path
       style="fill:#ffffff;stroke:#06294c;stroke-width:0;stroke-linecap:round;stroke-linejoin:round;stroke-miterlimit:1.7;stroke-dasharray:none"
       d="M 45.127963,94.577551 C 50.427355,91.219724 54.079866,88.40969 57.534529,85.032654 64.829352,77.901742 69.421982,70.057511 71.7078,60.824646 73.945951,51.78432 73.616057,42.071008 70.781264,33.54394 68.467781,26.584975 64.746992,20.600278 59.191477,14.902375 55.738035,11.360419 52.483363,8.6661834 48.425152,5.9899494 L 46.40836,4.6599527 h 1.045988 c 1.635475,0 6.185684,0.4707761 8.766883,0.9070439 10.392072,1.7564415 18.592611,5.7116444 24.886215,12.0028734 7.223668,7.220939 11.172134,16.641506 11.946569,28.503073 1.043072,15.976091 -7.595653,32.54272 -21.750686,41.711666 -4.539181,2.940264 -9.971268,5.13592 -15.383897,6.218192 -3.069147,0.613686 -4.339865,0.748025 -8.011848,0.847006 l -3.351896,0.09035 z"
       id="path4"
       transform="translate(18.392125,29.347916)" />
  </g>
</svg>
