<?xml version="1.0" encoding="UTF-8" standalone="no"?>
<!-- Created with Inkscape (http://www.inkscape.org/) -->

<svg
   version="1.1"
   id="svg1"
   width="103.87733"
   height="100"
   viewBox="0 0 103.87733 100"
   sodipodi:docname="ICON_MORNING.svg"
   inkscape:version="1.3-dev (c4ce85683, 2023-01-04)"
   xmlns:inkscape="http://www.inkscape.org/namespaces/inkscape"
   xmlns:sodipodi="http://sodipodi.sourceforge.net/DTD/sodipodi-0.dtd"
   xmlns="http://www.w3.org/2000/svg"
   xmlns:svg="http://www.w3.org/2000/svg">
  <defs
     id="defs1" />
  <sodipodi:namedview
     id="namedview1"
     pagecolor="#ffffff"
     bordercolor="#000000"
     borderopacity="0.25"
     inkscape:showpageshadow="2"
     inkscape:pageopacity="0.0"
     inkscape:pagecheckerboard="0"
     inkscape:deskcolor="#d1d1d1"
     inkscape:zoom="4.3061224"
     inkscape:cx="85.924171"
     inkscape:cy="85.575829"
     inkscape:window-width="1920"
     inkscape:window-height="1017"
     inkscape:window-x="-8"
     inkscape:window-y="-8"
     inkscape:window-maximized="1"
     inkscape:current-layer="svg1" />
  <g
     inkscape:groupmode="layer"
     id="layer2"
     inkscape:label="asdasdasd"
     transform="translate(-22.087466,-12.333219)">
    <ellipse
       style="fill:#fcd900;fill-opacity:0;stroke:#06294c;stroke-width:5.89998;stroke-linecap:butt;stroke-linejoin:bevel;stroke-miterlimit:1.7;stroke-dasharray:none"
       id="path2"
       cx="74.222511"
       cy="62.791042"
       rx="26.838717"
       ry="26.357904" />
    <path
       style="fill:#fcd900;fill-opacity:0;stroke:#06294c;stroke-width:5;stroke-linecap:round;stroke-linejoin:bevel;stroke-miterlimit:1.7;stroke-dasharray:none"
       d="M 73.829749,81.169633 C 86.633669,80.334558 91.895382,72.82125 92.55139,62.202409"
       id="path3"
       sodipodi:nodetypes="cc" />
    <path
       style="fill:#fcd900;fill-opacity:0;stroke:#06294c;stroke-width:5;stroke-linecap:round;stroke-linejoin:bevel;stroke-miterlimit:1.7;stroke-dasharray:none"
       d="M 42.016052,45.589735 31.411485,38.787695"
       id="path4" />
    <path
       style="fill:#fcd900;fill-opacity:0;stroke:#06294c;stroke-width:5;stroke-linecap:round;stroke-linejoin:bevel;stroke-miterlimit:1.7;stroke-dasharray:none"
       d="M 117.49329,86.344568 106.36198,80.442194"
       id="path4-8" />
    <path
       style="fill:#fcd900;fill-opacity:0;stroke:#06294c;stroke-width:5;stroke-linecap:round;stroke-linejoin:bevel;stroke-miterlimit:1.7;stroke-dasharray:none"
       d="m 106.18422,44.657544 11.22499,-5.72251"
       id="path4-5" />
    <path
       style="fill:#fcd900;fill-opacity:0;stroke:#06294c;stroke-width:5;stroke-linecap:round;stroke-linejoin:bevel;stroke-miterlimit:1.7;stroke-dasharray:none"
       d="M 29.034305,86.470788 39.549168,79.531127"
       id="path4-5-6" />
    <path
       style="fill:#fcd900;fill-opacity:0;stroke:#06294c;stroke-width:5;stroke-linecap:round;stroke-linejoin:bevel;stroke-miterlimit:1.7;stroke-dasharray:none"
       d="M 56.245275,30.803768 50.567007,19.563461"
       id="path4-0" />
    <path
       style="fill:#fcd900;fill-opacity:0;stroke:#06294c;stroke-width:5;stroke-linecap:round;stroke-linejoin:bevel;stroke-miterlimit:1.7;stroke-dasharray:none"
       d="M 96.062431,105.05738 89.302187,94.431501"
       id="path4-0-2" />
    <path
       style="fill:#fcd900;fill-opacity:0;stroke:#06294c;stroke-width:5;stroke-linecap:round;stroke-linejoin:bevel;stroke-miterlimit:1.7;stroke-dasharray:none"
       d="m 91.465041,30.539216 6.624,-10.711204"
       id="path4-0-1" />
    <path
       style="fill:#fcd900;fill-opacity:0;stroke:#06294c;stroke-width:5;stroke-linecap:round;stroke-linejoin:bevel;stroke-miterlimit:1.7;stroke-dasharray:none"
       d="M 50.967091,105.36828 56.630717,94.120594"
       id="path4-0-1-8" />
    <path
       style="fill:#fcd900;fill-opacity:0;stroke:#06294c;stroke-width:5;stroke-linecap:round;stroke-linejoin:bevel;stroke-miterlimit:1.7;stroke-dasharray:none"
       d="M 73.87233,27.423885 73.787163,14.833219"
       id="path4-2" />
    <path
       style="fill:#fcd900;fill-opacity:0;stroke:#06294c;stroke-width:5;stroke-linecap:round;stroke-linejoin:bevel;stroke-miterlimit:1.7;stroke-dasharray:none"
       d="m 110.86412,60.845583 12.60067,-0.164136"
       id="path4-2-1" />
    <path
       style="fill:#fcd900;fill-opacity:0;stroke:#06294c;stroke-width:5;stroke-linecap:round;stroke-linejoin:bevel;stroke-miterlimit:1.7;stroke-dasharray:none"
       d="M 24.587466,60.845584 37.188138,60.681449"
       id="path4-2-1-9" />
    <path
       style="fill:#fcd900;fill-opacity:0;stroke:#06294c;stroke-width:5;stroke-linecap:round;stroke-linejoin:bevel;stroke-miterlimit:1.7;stroke-dasharray:none"
       d="M 74.265096,109.83322 74.179929,97.242553"
       id="path4-2-7" />
  </g>
  <path
     style="fill:#fcd900;fill-opacity:1;stroke:#06294c;stroke-width:0;stroke-linecap:round;stroke-linejoin:bevel;stroke-miterlimit:1.7;stroke-dasharray:none"
     d="M 48.99295,74.907203 C 41.699995,73.969267 35.189672,69.969694 31.126549,63.931097 30.141185,62.466655 28.818041,59.75665 28.252557,58.04472 26.255028,51.997443 26.710237,45.557125 29.542331,39.796938 33.288264,32.178099 40.547733,27.063392 49.120439,26.003055 c 1.425636,-0.176334 4.603574,-0.176334 6.029215,0 7.381287,0.912973 13.893262,4.887172 17.993889,10.981501 0.985362,1.464444 2.308507,4.174449 2.873992,5.886381 1.997529,6.047276 1.542318,12.487593 -1.289776,18.247779 -3.743998,7.6149 -11.009838,12.734099 -19.578105,13.793883 -1.280028,0.158326 -4.90841,0.155143 -6.156704,-0.0056 z m 5.433203,-4.906399 c 8.214569,-1.114359 13.873767,-5.631499 16.208021,-12.937149 0.542889,-1.699109 0.932397,-3.537657 1.146118,-5.40985 0.255716,-2.240092 0.07169,-2.875613 -0.918483,-3.172024 -0.615068,-0.184122 -1.347319,0.09862 -1.618527,0.624956 -0.104865,0.203516 -0.259053,1.01753 -0.342648,1.808921 -0.961391,9.101806 -5.390718,14.319612 -13.544739,15.955893 -0.871387,0.174864 -2.055655,0.355118 -2.631705,0.400563 -1.425625,0.11247 -1.869406,0.267957 -2.169833,0.760233 -0.471118,0.77196 -0.198258,1.778689 0.574527,2.119725 0.450292,0.198719 0.853781,0.18021 3.297269,-0.151268 z"
     id="path5" />
</svg>
