<?xml version="1.0" encoding="UTF-8" standalone="no"?>
<!-- Created with Inkscape (http://www.inkscape.org/) -->

<svg
   version="1.1"
   id="svg1"
   width="123.62909"
   height="99.657738"
   viewBox="0 0 123.62909 99.657738"
   sodipodi:docname="ICON_AFTERNOON.svg"
   inkscape:version="1.3-dev (c4ce85683, 2023-01-04)"
   xmlns:inkscape="http://www.inkscape.org/namespaces/inkscape"
   xmlns:sodipodi="http://sodipodi.sourceforge.net/DTD/sodipodi-0.dtd"
   xmlns="http://www.w3.org/2000/svg"
   xmlns:svg="http://www.w3.org/2000/svg">
  <defs
     id="defs1" />
  <sodipodi:namedview
     id="namedview1"
     pagecolor="#ffffff"
     bordercolor="#000000"
     borderopacity="0.25"
     inkscape:showpageshadow="2"
     inkscape:pageopacity="0.0"
     inkscape:pagecheckerboard="0"
     inkscape:deskcolor="#d1d1d1"
     inkscape:zoom="3.2085921"
     inkscape:cx="115.00371"
     inkscape:cy="108.30295"
     inkscape:window-width="1920"
     inkscape:window-height="1017"
     inkscape:window-x="-8"
     inkscape:window-y="-8"
     inkscape:window-maximized="1"
     inkscape:current-layer="layer1" />
  <g
     inkscape:groupmode="layer"
     id="layer1"
     inkscape:label="ASDASD"
     transform="translate(-15.745481,-7.3302792)">
    <path
       style="fill:#fcd900;fill-opacity:0;stroke:#06294c;stroke-width:5;stroke-linecap:round;stroke-miterlimit:1.7;stroke-dasharray:none;stroke-opacity:1"
       d="M 81.220417,13.978963 75.511671,23.15442"
       id="path1-1" />
    <path
       style="fill:#fcd900;fill-opacity:0;stroke:#06294c;stroke-width:5;stroke-linecap:round;stroke-miterlimit:1.7;stroke-dasharray:none;stroke-opacity:1"
       d="m 97.60941,30.456028 -9.656456,4.911276"
       id="path1-5" />
    <path
       style="fill:#fcd900;fill-opacity:0;stroke:#06294c;stroke-width:5;stroke-linecap:round;stroke-miterlimit:1.7;stroke-dasharray:none;stroke-opacity:1"
       d="m 60.563973,9.8302792 0.05995,10.7916038"
       id="path1-74" />
    <path
       style="fill:#fcd900;fill-opacity:0;stroke:#06294c;stroke-width:5;stroke-linecap:round;stroke-miterlimit:1.7;stroke-dasharray:none;stroke-opacity:1"
       d="m 40.492987,13.792263 5.052673,9.548858"
       id="path1-3" />
    <path
       style="fill:#fcd900;fill-opacity:0;stroke:#06294c;stroke-width:5;stroke-linecap:round;stroke-miterlimit:1.7;stroke-dasharray:none;stroke-opacity:1"
       d="m 24.048669,29.985165 9.111026,5.853002"
       id="path1-0" />
    <path
       style="fill:#fcd900;fill-opacity:0;stroke:#06294c;stroke-width:5;stroke-linecap:round;stroke-miterlimit:1.7;stroke-dasharray:none;stroke-opacity:1"
       d="m 31.961133,64.942225 -9.083515,5.895196"
       id="path1" />
    <path
       style="fill:#fcd900;fill-opacity:0;stroke:#06294c;stroke-width:5;stroke-linecap:round;stroke-miterlimit:1.7;stroke-dasharray:none;stroke-opacity:1"
       d="M 29.089496,48.971273 18.245481,49.079122"
       id="path1-7" />
    <ellipse
       style="fill:#fcd900;fill-opacity:0;stroke:#06294c;stroke-width:5;stroke-linecap:round;stroke-miterlimit:1.7;stroke-dasharray:none;stroke-opacity:1"
       id="path2"
       ry="22.893007"
       rx="23.202456"
       cy="50.498997"
       cx="61.087612" />
    <path
       style="fill:#ffffff;fill-opacity:1;stroke:#06294c;stroke-width:5.00001;stroke-linecap:round;stroke-miterlimit:1.7;stroke-dasharray:none;stroke-opacity:1"
       d="M 54.669922,104.22534 C 49.508658,102.84786 44.394927,97.757433 42.252019,91.864032 40.143459,86.065107 41.465394,78.113863 45.402511,72.91435 c 2.196003,-2.900128 5.434343,-5.008021 9.05339,-5.89301 2.91667,-0.713235 3.090142,-0.973301 3.221948,-4.830206 0.106533,-3.117193 0.432409,-4.3282 1.663614,-6.182265 1.481594,-2.231111 4.398003,-4.625097 6.735065,-5.528601 1.400843,-0.54156 4.615975,-0.731439 6.428939,-0.379678 0.671045,0.130198 2.175709,0.592093 3.343694,1.026433 1.51017,0.561586 2.276254,0.751585 2.652013,0.657734 0.302388,-0.07552 1.716778,-1.28571 3.306748,-2.829322 3.22558,-3.131541 4.872529,-4.487264 7.273202,-5.987119 3.515537,-2.196376 6.353521,-3.089999 10.246192,-3.226311 3.119064,-0.109222 4.710664,0.141893 7.898924,1.246249 4.60052,1.593544 8.14147,3.953783 10.66099,7.106142 2.74334,3.432386 4.10925,7.131915 4.80566,13.015951 0.47867,4.044286 0.6433,4.876899 1.08689,5.496828 0.22466,0.313983 1.22826,1.033577 2.2302,1.5991 7.29685,4.11853 9.57936,6.865091 10.51531,12.653165 0.35505,2.195673 0.41445,6.889177 0.11067,8.744349 -1.13043,6.903622 -5.28526,12.396501 -10.87767,14.380811 l -1.28354,0.45543 -34.35938,0.0376 c -29.74397,0.0325 -34.505265,-0.001 -35.445448,-0.25228 z"
       id="path5" />
    <path
       style="fill:#fcd900;fill-opacity:1;stroke:#06294c;stroke-width:0;stroke-linecap:round;stroke-miterlimit:1.7;stroke-dasharray:none;stroke-opacity:1"
       d="m 47.587954,67.000798 c -4.454728,-3.539981 -7.480947,-9.133711 -7.890977,-14.585863 -0.390157,-5.187899 0.855241,-9.86266 3.729943,-14.000822 1.169348,-1.683288 3.928097,-4.390876 5.576162,-5.472752 1.781083,-1.169196 4.676491,-2.455483 6.796875,-3.019517 1.722831,-0.458283 2.292154,-0.51358 5.287662,-0.51358 2.995508,0 3.564831,0.0553 5.287662,0.51358 2.120384,0.564034 5.015791,1.850321 6.796879,3.019517 1.648058,1.081876 4.406812,3.789464 5.576159,5.472752 1.248743,1.797574 2.425776,4.240488 3.006857,6.24067 l 0.44297,1.524781 -0.978078,0.996564 c -0.537946,0.54811 -1.473947,1.427302 -2.080004,1.953759 l -1.10192,0.957193 -2.452494,-0.812442 c -2.185264,-0.723914 -2.705045,-0.821488 -4.770153,-0.895449 -2.542899,-0.09107 -4.382127,0.148611 -5.808162,0.756906 -2.419789,1.032194 -5.592597,3.740387 -7.151199,6.104004 -1.178833,1.787699 -1.593747,3.299952 -1.820417,6.634944 -0.105717,1.555408 -0.231047,2.890544 -0.278511,2.966969 -0.04746,0.07643 -0.854505,0.344396 -1.793422,0.59549 -0.938918,0.251092 -2.5516,0.869238 -3.583739,1.373658 l -1.876615,0.917126 z"
       id="path6" />
  </g>
</svg>
